<svg version="1" xmlns="http://www.w3.org/2000/svg" width="2666.667" height="2666.667" viewBox="0 0 2000.000000 2000.000000"><path d="M746.5 778.5c-14.9 2-33.6 6.5-43 10.5-16.7 7-32.3 17-43.8 28-23.6 22.6-37.4 51.3-44.3 92-1.6 9.6-1.8 21.5-2.1 132.8l-.4 122.2 19.8-.2 19.8-.3.1-55c.1-30.3.2-55.6.3-56.3.1-.9 24.9-1.2 120.6-1.2H894v113h40l-.1-117.8c-.1-64.7-.5-121.1-1-125.2-1.4-12.9-2-16.2-4-25.8-2.1-9.8-6.9-25.4-9.5-31.2-10.6-23.3-21.7-38.6-37.3-51.6-9.6-8.1-9.2-7.8-17.2-12.6-17.5-10.5-36.9-17.2-58.8-20.4-2.5-.4-5.5-.9-6.6-1.1-5.1-1.2-43.7-1-53 .2zm52 36.5c33 5.7 55.6 18.6 72 41 7.8 10.7 16.7 30.7 18.9 42.5.3 1.7 1.2 6.8 2.1 11.5 1.4 6.9 1.8 17.9 2.2 57.2l.5 48.8H652.5l.1-44.8c.1-26.3.6-48.2 1.3-53.2 1.1-8.1 1.3-9.6 2.7-16.5 1.3-6.7 5.7-20 8.9-27.1 13.2-28.9 36.6-48.2 68.7-56.5 8.6-2.2 9.9-2.5 19.3-3.5 3.3-.3 6.1-.7 6.3-.9.8-.8 32.5.4 38.7 1.5zM1505 780l-4.5.5v383h99c54.5 0 102.6-.3 107-.8 47-4.5 79.4-19.4 98.2-45.3 5.2-7.2 10.8-19.6 13.4-29.9 3.4-13.5 3.4-38.1-.1-53-6.2-26.4-24.6-48.3-50.2-59.9-6.7-3-18.5-7-23.3-7.8-1.4-.3.1-1.5 5.3-4.1 25.9-13.1 42.1-33.1 48.7-59.8.9-3.5 1.8-12.6 2.1-20.1.9-28.4-6.9-50-24.6-67.9-13.2-13.3-31.6-23-54.8-28.8-21.7-5.5-29.7-5.9-115.2-6.1-43.2 0-82.5-.2-87.5-.3-4.9-.1-11 0-13.5.3zm179 34.4c49.9 5.4 76.2 29.1 76.3 68.6.2 38.4-24.4 61.8-72.1 68.7-2.6.3-36.8.8-75.9 1l-71.3.4V813.4l68.3.2c37.5 0 71.1.4 74.7.8zm16 173c15.4 1.8 35.5 6.3 38.5 8.6.6.4 2.1 1.1 3.4 1.5 4.8 1.5 14.7 8 20.4 13.4 9.5 9 15.8 22.3 17.4 36.6 4.8 44.5-17.6 71.9-65.2 80-16 2.7-19 2.8-96.7 2.9l-76.8.2v-71.7c0-39.3.2-71.8.4-72 .8-.7 151.9-.2 158.6.5zM178.7 780.7c-.7 1.4 0 144.7.7 151.3 4.2 37.6 14.9 66 33 87.5 22.2 26.3 54.1 42.3 91.6 46.1 3 .3 6.1.7 6.9 1 1.7.6 33.7.6 37.1 0 1.4-.2 4.8-.7 7.5-1.1 30-3.7 55.4-15.1 75-33.5 6.8-6.4 11-11.3 17.5-20.6l6.2-8.9-.5 37.5c-.3 20.6-.8 39-1.1 40.7-.3 1.8-1 6.1-1.6 9.5-1.2 7.6-1.7 10.3-2.5 13.1-8 27.9-18.2 44.7-35.7 58.9-11.8 9.6-30.1 17.8-45.8 20.4-1.4.3-3 .6-3.7.9-7.3 2.5-47.1 2.5-61.8 0-21.5-3.8-30.5-6.6-48.6-15.3-15.8-7.7-27.6-16.1-41.8-29.9-3.6-3.5-6.5-6.2-6.7-6-.5.6-15.7 26.3-16.9 28.7-1.4 2.7-1.3 2.9 6.3 10.1 14.3 13.7 23.1 19.9 41.2 29.3 7.6 3.9 26 11.3 30 12.1.8.2 4 1 7 1.9 3 .8 8.7 2.2 12.5 3 6.9 1.4 9.3 1.8 24.5 3.6 7.2.8 45.9.6 51-.4 1.4-.2 4.3-.7 6.5-.9 8.4-1.2 12-1.9 22.4-4.8 28.8-8.1 52.1-22.8 69.1-43.4 20.7-25.2 31.1-53.1 35.6-95.5.4-3.6.8-71.6.8-151.3l.1-144.7H454l-.1 63.7c-.1 62.3-.2 69-1.3 80.3-1.9 17.3-7.1 36-13.8 49.5-15.8 31.5-43.6 50.4-82.3 56-9.8 1.4-39.1 1.4-46 .1-17-3.4-25.8-6.2-36-11.4-12.8-6.6-20.8-13.1-29.7-24.1-6.5-8-11.9-17.5-16.6-29.2-1.3-3.3-5.3-17.4-5.8-20.8-.2-1.4-.6-3.5-.9-4.6-.4-2-1.5-12-2-18.5-.2-1.9-.4-34.4-.4-72.3L219 780h-19.9c-11 0-20.2.3-20.4.7zM1055.9 780.7c-.1.5-.2 86.9-.3 192l-.1 191.3h40.5V987h240v177h40V780h-40l-.2 85.7-.3 85.8H1096V780h-20c-11 0-20.1.3-20.1.7z"/></svg>